<svg xmlns="http://www.w3.org/2000/svg" width="3330.0" height="792">
<rect x="0" y="0" width="100%" height="100%" fill="#ffffff"/>
<rect class="cluster" x="350.0" y="240" width="2560.0" height="122.0" fill="#eef2ff" stroke="#94a3b8" stroke-dasharray="6,2"/>
<rect class="cluster" x="90" y="90" width="480.0" height="122.0" fill="#ecfeff" stroke="#94a3b8" stroke-dasharray="6,2"/>
<line class="edge" x1="550.0" y1="301.0" x2="2710.0" y2="301.0" style="stroke:#9333ea;stroke-width:2;fill:none;stroke-dasharray:1,4"/>
<text class="edge-label" x="1594.0" y="377.0" font-size="11" fill="#111827">40G/stacking</text>
<line class="edge" x1="2710.0" y1="301.0" x2="550.0" y2="301.0" style="stroke:#9333ea;stroke-width:2;fill:none;stroke-dasharray:1,4"/>
<text class="edge-label" x="1594.0" y="229.0" font-size="11" fill="#111827">40G/stacking</text>
<line class="edge trunk" x1="550.0" y1="298.5" x2="630.0" y2="298.5" style="stroke:#16a34a;stroke-width:2;fill:none"/>
<line class="edge trunk" x1="550.0" y1="303.5" x2="630.0" y2="303.5" style="stroke:#16a34a;stroke-width:2;fill:none"/>
<text class="edge-label" x="554.0" y="377.0" font-size="11" fill="#111827">10G/fiber 2x</text>
<line class="edge trunk" x1="550.0" y1="298.5" x2="1150.0" y2="298.5" style="stroke:#16a34a;stroke-width:2;fill:none"/>
<line class="edge trunk" x1="550.0" y1="303.5" x2="1150.0" y2="303.5" style="stroke:#16a34a;stroke-width:2;fill:none"/>
<text class="edge-label" x="814.0" y="377.0" font-size="11" fill="#111827">10G/fiber 2x</text>
<line class="edge" x1="810.0" y1="301.0" x2="1670.0" y2="301.0" style="stroke:#2563eb;stroke-width:2;fill:none;stroke-dasharray:6,3"/>
<text class="edge-label" x="1213.0" y="377.0" font-size="11" fill="#111827">1G/copper</text>
<line class="edge" x1="810.0" y1="301.0" x2="1410.0" y2="301.0" style="stroke:#2563eb;stroke-width:2;fill:none;stroke-dasharray:6,3;stroke-dasharray:2,2;stroke-width:3"/>
<text class="edge-label" x="1059.0" y="377.0" font-size="11" fill="#111827">1G/copper STP-BLK</text>
<line class="edge" x1="630.0" y1="301.0" x2="290.0" y2="301.0" style="stroke:#2563eb;stroke-width:2;fill:none;stroke-dasharray:6,3"/>
<text class="edge-label" x="433.0" y="377.0" font-size="11" fill="#111827">1G/copper</text>
<line class="edge" x1="1330.0" y1="301.0" x2="2450.0" y2="301.0" style="stroke:#2563eb;stroke-width:2;fill:none;stroke-dasharray:6,3"/>
<text class="edge-label" x="1863.0" y="377.0" font-size="11" fill="#111827">1G/copper</text>
<line class="edge" x1="1330.0" y1="301.0" x2="2190.0" y2="301.0" style="stroke:#2563eb;stroke-width:2;fill:none;stroke-dasharray:6,3"/>
<text class="edge-label" x="1733.0" y="377.0" font-size="11" fill="#111827">1G/copper</text>
<line class="edge" x1="1330.0" y1="301.0" x2="1930.0" y2="301.0" style="stroke:#2563eb;stroke-width:2;fill:none;stroke-dasharray:6,3"/>
<text class="edge-label" x="1603.0" y="391.0" font-size="11" fill="#111827">1G/copper</text>
<line class="edge" x1="1410.0" y1="301.0" x2="1070.0" y2="301.0" style="stroke:#2563eb;stroke-width:2;fill:none;stroke-dasharray:2,2"/>
<text class="edge-label" x="1217.5" y="229.0" font-size="11" fill="#111827">1G/dac</text>
<line class="edge" x1="1410.0" y1="301.0" x2="1070.0" y2="451.0" style="stroke:#2563eb;stroke-width:2;fill:none;stroke-dasharray:6,3"/>
<text class="edge-label" x="1213.0" y="396.0" font-size="11" fill="#111827">1G/copper</text>
<line class="edge" x1="1850.0" y1="301.0" x2="2970.0" y2="301.0" style="stroke:#2563eb;stroke-width:2;fill:none;stroke-dasharray:2,2"/>
<text class="edge-label" x="2387.5" y="377.0" font-size="11" fill="#111827">1G/dac</text>
<line class="edge" x1="1670.0" y1="301.0" x2="810.0" y2="451.0" style="stroke:#2563eb;stroke-width:2;fill:none;stroke-dasharray:6,3"/>
<text class="edge-label" x="1157.0" y="396.0" font-size="11" fill="#111827">1G/copper</text>
<line class="edge" x1="2190.0" y1="301.0" x2="1590.0" y2="451.0" style="stroke:#2563eb;stroke-width:2;fill:none;stroke-dasharray:6,3"/>
<text class="edge-label" x="1863.0" y="396.0" font-size="11" fill="#111827">1G/copper</text>
<line class="edge" x1="2450.0" y1="301.0" x2="1330.0" y2="451.0" style="stroke:#2563eb;stroke-width:2;fill:none;stroke-dasharray:6,3"/>
<text class="edge-label" x="1863.0" y="414.0" font-size="11" fill="#111827">1G/copper</text>
<line class="edge trunk" x1="2710.0" y1="303.5" x2="810.0" y2="303.5" style="stroke:#16a34a;stroke-width:2;fill:none"/>
<line class="edge trunk" x1="2710.0" y1="298.5" x2="810.0" y2="298.5" style="stroke:#16a34a;stroke-width:2;fill:none"/>
<text class="edge-label" x="1724.0" y="229.0" font-size="11" fill="#111827">10G/fiber 2x</text>
<line class="edge trunk" x1="2710.0" y1="303.5" x2="1330.0" y2="303.5" style="stroke:#16a34a;stroke-width:2;fill:none"/>
<line class="edge trunk" x1="2710.0" y1="298.5" x2="1330.0" y2="298.5" style="stroke:#16a34a;stroke-width:2;fill:none"/>
<text class="edge-label" x="1984.0" y="377.0" font-size="11" fill="#111827">10G/fiber 2x</text>
<line class="edge" x1="290.0" y1="151.0" x2="370.0" y2="151.0" style="stroke:#16a34a;stroke-width:2;fill:none;stroke-dasharray:1,4"/>
<text class="edge-label" x="294.0" y="227.0" font-size="11" fill="#111827">10G/stacking</text>
<line class="edge" x1="2970.0" y1="301.0" x2="290.0" y2="451.0" style="stroke:#2563eb;stroke-width:2;fill:none;stroke-dasharray:6,3"/>
<text class="edge-label" x="1603.0" y="406.0" font-size="11" fill="#111827">1G/copper</text>
<line class="edge" x1="890.0" y1="301.0" x2="550.0" y2="451.0" style="stroke:#2563eb;stroke-width:2;fill:none;stroke-dasharray:6,3"/>
<text class="edge-label" x="693.0" y="396.0" font-size="11" fill="#111827">1G/copper</text>
<rect class="node" id="node-ACCESS1" x="110" y="260" width="180.0" height="82.0" rx="8" ry="8" fill="#f8fafc" stroke="#1f2937"/>
<text x="118" y="278" font-size="12" font-weight="700">ACCESS1</text>
<text x="118" y="294" font-size="11">switch 2960</text>
<text x="118" y="310" font-size="10">10.0.3.1</text>
<text x="118" y="326" font-size="10"></text>
<rect class="node" id="node-CORE1" x="370.0" y="260" width="180.0" height="82.0" rx="8" ry="8" fill="#f8fafc" stroke="#1f2937"/>
<text x="378.0" y="278" font-size="12" font-weight="700">CORE1</text>
<text x="378.0" y="294" font-size="11">switch C9500</text>
<text x="378.0" y="310" font-size="10">10.0.0.1</text>
<text x="378.0" y="326" font-size="10">L3, DHCP</text>
<rect class="node" id="node-DIST1" x="630.0" y="260" width="180.0" height="82.0" rx="8" ry="8" fill="#f8fafc" stroke="#1f2937"/>
<text x="638.0" y="278" font-size="12" font-weight="700">DIST1</text>
<text x="638.0" y="294" font-size="11">switch 6300</text>
<text x="638.0" y="310" font-size="10">10.0.1.1</text>
<text x="638.0" y="326" font-size="10"></text>
<rect class="node" id="node-EDGE6" x="890.0" y="260" width="180.0" height="82.0" rx="8" ry="8" fill="#f8fafc" stroke="#1f2937"/>
<text x="898.0" y="278" font-size="12" font-weight="700">EDGE6</text>
<text x="898.0" y="294" font-size="11">switch 6100</text>
<text x="898.0" y="310" font-size="10">10.0.2.6</text>
<text x="898.0" y="326" font-size="10"></text>
<rect class="node" id="node-DIST2" x="1150.0" y="260" width="180.0" height="82.0" rx="8" ry="8" fill="#f8fafc" stroke="#1f2937"/>
<text x="1158.0" y="278" font-size="12" font-weight="700">DIST2</text>
<text x="1158.0" y="294" font-size="11">switch 6300</text>
<text x="1158.0" y="310" font-size="10">10.0.1.2</text>
<text x="1158.0" y="326" font-size="10"></text>
<rect class="node" id="node-EDGE2" x="1410.0" y="260" width="180.0" height="82.0" rx="8" ry="8" fill="#f8fafc" stroke="#1f2937"/>
<text x="1418.0" y="278" font-size="12" font-weight="700">EDGE2</text>
<text x="1418.0" y="294" font-size="11">switch 2930F</text>
<text x="1418.0" y="310" font-size="10">10.0.2.2</text>
<text x="1418.0" y="326" font-size="10"></text>
<rect class="node" id="node-EDGE1" x="1670.0" y="260" width="180.0" height="82.0" rx="8" ry="8" fill="#f8fafc" stroke="#1f2937"/>
<text x="1678.0" y="278" font-size="12" font-weight="700">EDGE1</text>
<text x="1678.0" y="294" font-size="11">switch 2930F</text>
<text x="1678.0" y="310" font-size="10">10.0.2.1</text>
<text x="1678.0" y="326" font-size="10"></text>
<rect class="node" id="node-ACCESS2" x="1930.0" y="260" width="180.0" height="82.0" rx="8" ry="8" fill="#f8fafc" stroke="#1f2937"/>
<text x="1938.0" y="278" font-size="12" font-weight="700">ACCESS2</text>
<text x="1938.0" y="294" font-size="11">switch 2960</text>
<text x="1938.0" y="310" font-size="10">10.0.3.2</text>
<text x="1938.0" y="326" font-size="10"></text>
<rect class="node" id="node-EDGE4" x="2190.0" y="260" width="180.0" height="82.0" rx="8" ry="8" fill="#f8fafc" stroke="#1f2937"/>
<text x="2198.0" y="278" font-size="12" font-weight="700">EDGE4</text>
<text x="2198.0" y="294" font-size="11">switch 9200</text>
<text x="2198.0" y="310" font-size="10">10.0.2.4</text>
<text x="2198.0" y="326" font-size="10"></text>
<rect class="node" id="node-EDGE3" x="2450.0" y="260" width="180.0" height="82.0" rx="8" ry="8" fill="#f8fafc" stroke="#1f2937"/>
<text x="2458.0" y="278" font-size="12" font-weight="700">EDGE3</text>
<text x="2458.0" y="294" font-size="11">switch 9200</text>
<text x="2458.0" y="310" font-size="10">10.0.2.3</text>
<text x="2458.0" y="326" font-size="10"></text>
<rect class="node" id="node-CORE2" x="2710.0" y="260" width="180.0" height="82.0" rx="8" ry="8" fill="#f8fafc" stroke="#1f2937"/>
<text x="2718.0" y="278" font-size="12" font-weight="700">CORE2</text>
<text x="2718.0" y="294" font-size="11">switch C9500</text>
<text x="2718.0" y="310" font-size="10">10.0.0.2</text>
<text x="2718.0" y="326" font-size="10">L3, DHCP</text>
<rect class="node" id="node-EDGE5" x="2970.0" y="260" width="180.0" height="82.0" rx="8" ry="8" fill="#f8fafc" stroke="#1f2937"/>
<text x="2978.0" y="278" font-size="12" font-weight="700">EDGE5</text>
<text x="2978.0" y="294" font-size="11">switch 6100</text>
<text x="2978.0" y="310" font-size="10">10.0.2.5</text>
<text x="2978.0" y="326" font-size="10"></text>
<rect class="node" id="node-FW-A" x="110" y="110" width="180.0" height="82.0" rx="8" ry="8" fill="#f8fafc" stroke="#1f2937"/>
<text x="118" y="128" font-size="12" font-weight="700">FW-A</text>
<text x="118" y="144" font-size="11">firewall Fortigate-200F</text>
<text x="118" y="160" font-size="10"></text>
<text x="118" y="176" font-size="10"></text>
<rect class="node" id="node-FW-B" x="370.0" y="110" width="180.0" height="82.0" rx="8" ry="8" fill="#f8fafc" stroke="#1f2937"/>
<text x="378.0" y="128" font-size="12" font-weight="700">FW-B</text>
<text x="378.0" y="144" font-size="11">firewall Fortigate-200F</text>
<text x="378.0" y="160" font-size="10"></text>
<text x="378.0" y="176" font-size="10"></text>
<rect class="node" id="node-SRV1" x="110" y="410" width="180.0" height="82.0" rx="8" ry="8" fill="#f8fafc" stroke="#1f2937"/>
<text x="118" y="428" font-size="12" font-weight="700">SRV1</text>
<text x="118" y="444" font-size="11">server Linux</text>
<text x="118" y="460" font-size="10">10.0.10.11</text>
<text x="118" y="476" font-size="10"></text>
<rect class="node" id="node-SRV2" x="370.0" y="410" width="180.0" height="82.0" rx="8" ry="8" fill="#f8fafc" stroke="#1f2937"/>
<text x="378.0" y="428" font-size="12" font-weight="700">SRV2</text>
<text x="378.0" y="444" font-size="11">server Windows</text>
<text x="378.0" y="460" font-size="10">10.0.10.12</text>
<text x="378.0" y="476" font-size="10"></text>
<rect class="node" id="node-AP1" x="630.0" y="410" width="180.0" height="82.0" rx="8" ry="8" fill="#f8fafc" stroke="#1f2937"/>
<text x="638.0" y="428" font-size="12" font-weight="700">AP1</text>
<text x="638.0" y="444" font-size="11">ap Ubiquiti U6</text>
<text x="638.0" y="460" font-size="10">10.0.20.11</text>
<text x="638.0" y="476" font-size="10"></text>
<rect class="node" id="node-AP2" x="890.0" y="410" width="180.0" height="82.0" rx="8" ry="8" fill="#f8fafc" stroke="#1f2937"/>
<text x="898.0" y="428" font-size="12" font-weight="700">AP2</text>
<text x="898.0" y="444" font-size="11">ap Ubiquiti U6</text>
<text x="898.0" y="460" font-size="10">10.0.20.12</text>
<text x="898.0" y="476" font-size="10"></text>
<rect class="node" id="node-AP3" x="1150.0" y="410" width="180.0" height="82.0" rx="8" ry="8" fill="#f8fafc" stroke="#1f2937"/>
<text x="1158.0" y="428" font-size="12" font-weight="700">AP3</text>
<text x="1158.0" y="444" font-size="11">ap Aruba AP</text>
<text x="1158.0" y="460" font-size="10">10.0.20.13</text>
<text x="1158.0" y="476" font-size="10"></text>
<rect class="node" id="node-AP4" x="1410.0" y="410" width="180.0" height="82.0" rx="8" ry="8" fill="#f8fafc" stroke="#1f2937"/>
<text x="1418.0" y="428" font-size="12" font-weight="700">AP4</text>
<text x="1418.0" y="444" font-size="11">ap Aruba AP</text>
<text x="1418.0" y="460" font-size="10">10.0.20.14</text>
<text x="1418.0" y="476" font-size="10"></text>
<rect x="24" y="642" width="420" height="120" fill="#fffbeb" stroke="#a16207"/>
<text x="34" y="662" font-size="13" font-weight="700">Legend</text>
<text x="34" y="682" font-size="11">Speed colors: 100M amber, 1G blue, 10G green, 40G purple, 100G red</text>
<text x="34" y="699" font-size="11">Media lines: fiber solid, copper dashed, DAC dotted, stacking sparse dots</text>
<text x="34" y="716" font-size="11">Trunk: double-line with member count; STP blocked: dotted + STP-BLK label</text>
<text x="34" y="733" font-size="11">Shading: stack / HA cluster boundaries</text>
<rect x="2960.0" y="672" width="346" height="96" fill="#f1f5f9" stroke="#334155"/>
<text x="2970.0" y="700" font-size="14" font-weight="700">Network Diagram Generator</text>
<text x="2970.0" y="720" font-size="11">Paper: 17x11 in</text>
<rect class="info-box" x="2810.0" y="20" width="490" height="58" fill="#f8fafc" stroke="#64748b"/>
<text x="2818.0" y="38" font-size="12" font-weight="700">Routing</text>
<text x="2818.0" y="54" font-size="10">CORE1: 0.0.0.0/0 via 10.0.0.254</text>
<text x="2818.0" y="66" font-size="10">CORE2: 0.0.0.0/0 via 10.0.0.254</text>
<rect class="info-box" x="2810.0" y="90" width="490" height="58" fill="#f8fafc" stroke="#64748b"/>
<text x="2818.0" y="108" font-size="12" font-weight="700">DHCP</text>
<text x="2818.0" y="124" font-size="10">CORE1: VLAN10 10.10.10.0/24</text>
<text x="2818.0" y="136" font-size="10">CORE2: VLAN10 10.10.10.0/24</text>
<rect class="info-box" x="2810.0" y="160" width="490" height="120" fill="#f8fafc" stroke="#64748b"/>
<text x="2818.0" y="178" font-size="12" font-weight="700">VLANs</text>
<text x="2818.0" y="194" font-size="10">ACCESS1: 10 Users</text>
<text x="2818.0" y="206" font-size="10">ACCESS1: 20 Voice</text>
<text x="2818.0" y="218" font-size="10">CORE1: 10 Users</text>
<text x="2818.0" y="230" font-size="10">CORE1: 20 Voice</text>
<text x="2818.0" y="242" font-size="10">DIST1: 10 Users</text>
<text x="2818.0" y="254" font-size="10">DIST1: 20 Voice</text>
</svg>