<svg xmlns="http://www.w3.org/2000/svg" width="2870.0" height="990.0" viewBox="0 0 2870.0 990.0">
<rect x="0" y="0" width="100%" height="100%" fill="#ffffff"/>
<rect class="cluster stack" x="502.0" y="552.0" width="448.0" height="122.0" fill="#e0e7ff" stroke="#64748b" stroke-dasharray="5,3"/>
<rect class="cluster ha" x="42.0" y="427.0" width="448.0" height="122.0" fill="#ffe4e6" stroke="#64748b" stroke-dasharray="5,3"/>
<line class="edge trunk" data-edge-id="e0" x1="702.0" y1="610.6" x2="750.0" y2="610.6" style="stroke:#16a34a;stroke-width:2.2;fill:none"/>
<line class="edge trunk" data-edge-id="e0" x1="702.0" y1="615.4" x2="750.0" y2="615.4" style="stroke:#16a34a;stroke-width:2.2;fill:none"/>
<text class="edge-label" data-edge-id="e0" x="766.0" y="613.0" text-anchor="middle" font-size="11" fill="#111827">10G/fiber Po1 members=4</text>
<line class="edge" data-edge-id="e1" x1="980.0" y1="613.0" x2="702.0" y2="613.0" style="stroke:#16a34a;stroke-width:2.2;fill:none"/>
<text class="edge-label" data-edge-id="e1" x="881.0" y="613.0" text-anchor="middle" font-size="11" fill="#111827">10G/fiber</text>
<line class="edge" data-edge-id="e2" x1="1210.0" y1="613.0" x2="702.0" y2="613.0" style="stroke:#16a34a;stroke-width:2.2;fill:none"/>
<text class="edge-label" data-edge-id="e2" x="996.0" y="613.0" text-anchor="middle" font-size="11" fill="#111827">10G/fiber</text>
<line class="edge" data-edge-id="e3" x1="980.0" y1="613.0" x2="932.0" y2="613.0" style="stroke:#16a34a;stroke-width:2.2;fill:none"/>
<text class="edge-label" data-edge-id="e3" x="996.0" y="613.0" text-anchor="middle" font-size="11" fill="#111827">10G/fiber</text>
<line class="edge" data-edge-id="e4" x1="1210.0" y1="613.0" x2="932.0" y2="613.0" style="stroke:#16a34a;stroke-width:2.2;fill:none"/>
<text class="edge-label" data-edge-id="e4" x="1111.0" y="613.0" text-anchor="middle" font-size="11" fill="#111827">10G/fiber</text>
<line class="edge" data-edge-id="e5" x1="1440.0" y1="613.0" x2="1162.0" y2="613.0" style="stroke:#2563eb;stroke-width:2.2;fill:none;stroke-dasharray:6,3"/>
<text class="edge-label" data-edge-id="e5" x="1341.0" y="613.0" text-anchor="middle" font-size="11" fill="#111827">1G/copper</text>
<line class="edge" data-edge-id="e6" x1="1670.0" y1="613.0" x2="1162.0" y2="613.0" style="stroke:#2563eb;stroke-width:2.2;fill:none;stroke-dasharray:6,3"/>
<text class="edge-label" data-edge-id="e6" x="1456.0" y="613.0" text-anchor="middle" font-size="11" fill="#111827">1G/copper</text>
<line class="edge" data-edge-id="e7" x1="980.0" y1="613.0" x2="190.0" y2="725.0" style="stroke:#2563eb;stroke-width:2.2;fill:none;stroke-dasharray:6,3"/>
<text class="edge-label" data-edge-id="e7" x="585.0" y="693.0" text-anchor="middle" font-size="11" fill="#111827">1G/copper</text>
<line class="edge" data-edge-id="e8" x1="1392.0" y1="613.0" x2="1900.0" y2="613.0" style="stroke:#2563eb;stroke-width:2.2;fill:none;stroke-dasharray:6,3;stroke-dasharray:2,2;stroke-width:3"/>
<text class="edge-label" data-edge-id="e8" x="1686.0" y="613.0" text-anchor="middle" font-size="11" fill="#111827">1G/copper STP blocked</text>
<line class="edge" data-edge-id="e9" x1="1900.0" y1="613.0" x2="1392.0" y2="613.0" style="stroke:#2563eb;stroke-width:2.2;fill:none;stroke-dasharray:6,3"/>
<text class="edge-label" data-edge-id="e9" x="1686.0" y="613.0" text-anchor="middle" font-size="11" fill="#111827">1G/copper</text>
<line class="edge" data-edge-id="e10" x1="2130.0" y1="613.0" x2="1392.0" y2="613.0" style="stroke:#2563eb;stroke-width:2.2;fill:none;stroke-dasharray:6,3"/>
<text class="edge-label" data-edge-id="e10" x="1801.0" y="613.0" text-anchor="middle" font-size="11" fill="#111827">1G/copper</text>
<line class="edge" data-edge-id="e11" x1="1210.0" y1="613.0" x2="368.0" y2="725.0" style="stroke:#2563eb;stroke-width:2.2;fill:none;stroke-dasharray:6,3"/>
<text class="edge-label" data-edge-id="e11" x="789.0" y="693.0" text-anchor="middle" font-size="11" fill="#111827">1G/copper</text>
<line class="edge" data-edge-id="e12" x1="242.0" y1="613.0" x2="1440.0" y2="613.0" style="stroke:#2563eb;stroke-width:2.2;fill:none;stroke-dasharray:6,3"/>
<text class="edge-label" data-edge-id="e12" x="881.0" y="613.0" text-anchor="middle" font-size="11" fill="#111827">1G/copper</text>
<line class="edge" data-edge-id="e13" x1="472.0" y1="613.0" x2="1670.0" y2="613.0" style="stroke:#2563eb;stroke-width:2.2;fill:none;stroke-dasharray:6,3"/>
<text class="edge-label" data-edge-id="e13" x="1111.0" y="613.0" text-anchor="middle" font-size="11" fill="#111827">1G/copper</text>
<line class="edge" data-edge-id="e14" x1="2360.0" y1="613.0" x2="2082.0" y2="613.0" style="stroke:#2563eb;stroke-width:2.2;fill:none;stroke-dasharray:6,3"/>
<text class="edge-label" data-edge-id="e14" x="2261.0" y="613.0" text-anchor="middle" font-size="11" fill="#111827">1G/copper</text>
<line class="edge" data-edge-id="e15" x1="2590.0" y1="613.0" x2="2312.0" y2="613.0" style="stroke:#2563eb;stroke-width:2.2;fill:none;stroke-dasharray:6,3"/>
<text class="edge-label" data-edge-id="e15" x="2491.0" y="613.0" text-anchor="middle" font-size="11" fill="#111827">1G/copper</text>
<line class="edge" data-edge-id="e16" x1="2360.0" y1="613.0" x2="954.0" y2="738.0" style="stroke:#2563eb;stroke-width:2.2;fill:none;stroke-dasharray:6,3"/>
<text class="edge-label" data-edge-id="e16" x="1657.0" y="667.5" text-anchor="middle" font-size="11" fill="#111827">1G/copper</text>
<line class="edge" data-edge-id="e17" x1="2360.0" y1="613.0" x2="546.0" y2="725.0" style="stroke:#2563eb;stroke-width:2.2;fill:none;stroke-dasharray:6,3"/>
<text class="edge-label" data-edge-id="e17" x="1453.0" y="681.0" text-anchor="middle" font-size="11" fill="#111827">1G/copper</text>
<line class="edge" data-edge-id="e18" x1="2590.0" y1="613.0" x2="1184.0" y2="738.0" style="stroke:#2563eb;stroke-width:2.2;fill:none;stroke-dasharray:6,3"/>
<text class="edge-label" data-edge-id="e18" x="1887.0" y="667.5" text-anchor="middle" font-size="11" fill="#111827">1G/copper</text>
<line class="edge" data-edge-id="e19" x1="2590.0" y1="613.0" x2="724.0" y2="725.0" style="stroke:#2563eb;stroke-width:2.2;fill:none;stroke-dasharray:6,3"/>
<text class="edge-label" data-edge-id="e19" x="1657.0" y="681.0" text-anchor="middle" font-size="11" fill="#111827">1G/copper</text>
<line class="edge" data-edge-id="e20" x1="242.0" y1="488.0" x2="290.0" y2="488.0" style="stroke:#16a34a;stroke-width:2.2;fill:none;stroke-dasharray:1,5"/>
<text class="edge-label" data-edge-id="e20" x="306.0" y="488.0" text-anchor="middle" font-size="11" fill="#111827">10G/stacking</text>
<line class="edge" data-edge-id="e21" x1="208.0" y1="230.0" x2="256.0" y2="355.0" style="stroke:#16a34a;stroke-width:2.2;fill:none"/>
<text class="edge-label" data-edge-id="e21" x="232.0" y="284.5" text-anchor="middle" font-size="11" fill="#111827">10G/fiber</text>
<line class="edge" data-edge-id="e22" x1="256.0" y1="355.0" x2="242.0" y2="488.0" style="stroke:#16a34a;stroke-width:2.2;fill:none"/>
<text class="edge-label" data-edge-id="e22" x="249.0" y="413.5" text-anchor="middle" font-size="11" fill="#111827">10G/fiber</text>
<line class="edge" data-edge-id="e23" x1="330.0" y1="390.0" x2="381.0" y2="445.0" style="stroke:#16a34a;stroke-width:2.2;fill:none"/>
<text class="edge-label" data-edge-id="e23" x="355.5" y="409.5" text-anchor="middle" font-size="11" fill="#111827">10G/fiber</text>
<line class="edge" data-edge-id="e24" x1="134.0" y1="265.0" x2="134.0" y2="320.0" style="stroke:#2563eb;stroke-width:2.2;fill:none;stroke-dasharray:6,3"/>
<text class="edge-label" data-edge-id="e24" x="134.0" y="284.5" text-anchor="middle" font-size="11" fill="#111827">1G/copper</text>
<line class="edge" data-edge-id="e25" x1="134.0" y1="390.0" x2="151.0" y2="445.0" style="stroke:#2563eb;stroke-width:2.2;fill:none;stroke-dasharray:6,3"/>
<text class="edge-label" data-edge-id="e25" x="142.5" y="409.5" text-anchor="middle" font-size="11" fill="#111827">1G/copper</text>
<line class="edge" data-edge-id="e26" x1="208.0" y1="355.0" x2="290.0" y2="488.0" style="stroke:#2563eb;stroke-width:2.2;fill:none;stroke-dasharray:6,3"/>
<text class="edge-label" data-edge-id="e26" x="289.0" y="421.5" text-anchor="middle" font-size="11" fill="#111827">1G/copper</text>
<line class="edge" data-edge-id="e27" x1="134.0" y1="140.0" x2="134.0" y2="195.0" style="stroke:#2563eb;stroke-width:2.2;fill:none"/>
<text class="edge-label" data-edge-id="e27" x="134.0" y="159.5" text-anchor="middle" font-size="11" fill="#111827">1G/fiber</text>
<line class="edge" data-edge-id="e28" x1="256.0" y1="105.0" x2="208.0" y2="230.0" style="stroke:#2563eb;stroke-width:2.2;fill:none"/>
<text class="edge-label" data-edge-id="e28" x="232.0" y="159.5" text-anchor="middle" font-size="11" fill="#111827">1G/fiber</text>
<line class="edge" data-edge-id="e29" x1="452.0" y1="105.0" x2="208.0" y2="230.0" style="stroke:#2563eb;stroke-width:2.2;fill:none"/>
<text class="edge-label" data-edge-id="e29" x="330.0" y="159.5" text-anchor="middle" font-size="11" fill="#111827">1G/fiber</text>
<line class="edge" data-edge-id="e30" x1="2360.0" y1="613.0" x2="954.0" y2="738.0" style="stroke:#2563eb;stroke-width:2.2;fill:none;stroke-dasharray:6,3"/>
<text class="edge-label" data-edge-id="e30" x="1657.0" y="699.5" text-anchor="middle" font-size="11" fill="#111827">1G/copper</text>
<line class="edge" data-edge-id="e31" x1="2590.0" y1="613.0" x2="1184.0" y2="738.0" style="stroke:#2563eb;stroke-width:2.2;fill:none;stroke-dasharray:6,3"/>
<text class="edge-label" data-edge-id="e31" x="1887.0" y="687.5" text-anchor="middle" font-size="11" fill="#111827">1G/copper</text>
<rect class="node switch" x="520.0" y="570.0" width="182" height="86" rx="8" fill="#f8fafc" stroke="#1f2937"/>
<text x="611.0" y="588.0" text-anchor="middle" font-size="12" font-weight="700">CORE1</text>
<text x="611.0" y="604.0" text-anchor="middle" font-size="10">switch </text>
<text x="611.0" y="620.0" text-anchor="middle" font-size="9">10.0.0.0 10.0.0.1</text>
<text x="611.0" y="636.0" text-anchor="middle" font-size="9">DHCP STP root</text>
<rect class="node switch" x="750.0" y="570.0" width="182" height="86" rx="8" fill="#f8fafc" stroke="#1f2937"/>
<text x="841.0" y="588.0" text-anchor="middle" font-size="12" font-weight="700">CORE2</text>
<text x="841.0" y="604.0" text-anchor="middle" font-size="10">switch </text>
<text x="841.0" y="620.0" text-anchor="middle" font-size="9">10.0.0.0 10.0.0.1</text>
<text x="841.0" y="636.0" text-anchor="middle" font-size="9">DHCP</text>
<rect class="node switch" x="980.0" y="570.0" width="182" height="86" rx="8" fill="#f8fafc" stroke="#1f2937"/>
<text x="1071.0" y="588.0" text-anchor="middle" font-size="12" font-weight="700">DIST1</text>
<text x="1071.0" y="604.0" text-anchor="middle" font-size="10">switch ProCurve</text>
<text x="1071.0" y="620.0" text-anchor="middle" font-size="9">172.16.10.0</text>
<text x="1071.0" y="636.0" text-anchor="middle" font-size="9">STP root</text>
<rect class="node switch" x="1210.0" y="570.0" width="182" height="86" rx="8" fill="#f8fafc" stroke="#1f2937"/>
<text x="1301.0" y="588.0" text-anchor="middle" font-size="12" font-weight="700">DIST2</text>
<text x="1301.0" y="604.0" text-anchor="middle" font-size="10">switch </text>
<text x="1301.0" y="620.0" text-anchor="middle" font-size="9">10.0.0.2 10.10.0.0</text>
<text x="1301.0" y="636.0" text-anchor="middle" font-size="9">STP root</text>
<rect class="node switch" x="1440.0" y="570.0" width="182" height="86" rx="8" fill="#f8fafc" stroke="#1f2937"/>
<text x="1531.0" y="588.0" text-anchor="middle" font-size="12" font-weight="700">EDGE1</text>
<text x="1531.0" y="604.0" text-anchor="middle" font-size="10">switch </text>
<text x="1531.0" y="620.0" text-anchor="middle" font-size="9">10.0.0.2 10.10.0.0</text>
<text x="1531.0" y="636.0" text-anchor="middle" font-size="9"></text>
<rect class="node switch" x="1670.0" y="570.0" width="182" height="86" rx="8" fill="#f8fafc" stroke="#1f2937"/>
<text x="1761.0" y="588.0" text-anchor="middle" font-size="12" font-weight="700">EDGE2</text>
<text x="1761.0" y="604.0" text-anchor="middle" font-size="10">switch </text>
<text x="1761.0" y="620.0" text-anchor="middle" font-size="9">10.0.0.2 10.10.0.0</text>
<text x="1761.0" y="636.0" text-anchor="middle" font-size="9"></text>
<rect class="node switch" x="1900.0" y="570.0" width="182" height="86" rx="8" fill="#f8fafc" stroke="#1f2937"/>
<text x="1991.0" y="588.0" text-anchor="middle" font-size="12" font-weight="700">EDGE3</text>
<text x="1991.0" y="604.0" text-anchor="middle" font-size="10">switch </text>
<text x="1991.0" y="620.0" text-anchor="middle" font-size="9">10.0.0.2 10.10.0.0</text>
<text x="1991.0" y="636.0" text-anchor="middle" font-size="9"></text>
<rect class="node switch" x="2130.0" y="570.0" width="182" height="86" rx="8" fill="#f8fafc" stroke="#1f2937"/>
<text x="2221.0" y="588.0" text-anchor="middle" font-size="12" font-weight="700">EDGE4</text>
<text x="2221.0" y="604.0" text-anchor="middle" font-size="10">switch </text>
<text x="2221.0" y="620.0" text-anchor="middle" font-size="9">10.0.0.2 10.10.0.0</text>
<text x="2221.0" y="636.0" text-anchor="middle" font-size="9"></text>
<rect class="node switch" x="2360.0" y="570.0" width="182" height="86" rx="8" fill="#f8fafc" stroke="#1f2937"/>
<text x="2451.0" y="588.0" text-anchor="middle" font-size="12" font-weight="700">EDGE5</text>
<text x="2451.0" y="604.0" text-anchor="middle" font-size="10">switch </text>
<text x="2451.0" y="620.0" text-anchor="middle" font-size="9">10.0.0.2 10.10.0.0</text>
<text x="2451.0" y="636.0" text-anchor="middle" font-size="9"></text>
<rect class="node switch" x="2590.0" y="570.0" width="182" height="86" rx="8" fill="#f8fafc" stroke="#1f2937"/>
<text x="2681.0" y="588.0" text-anchor="middle" font-size="12" font-weight="700">EDGE6</text>
<text x="2681.0" y="604.0" text-anchor="middle" font-size="10">switch </text>
<text x="2681.0" y="620.0" text-anchor="middle" font-size="9">10.0.0.2 10.10.0.0</text>
<text x="2681.0" y="636.0" text-anchor="middle" font-size="9"></text>
<rect class="node switch" x="60.0" y="570.0" width="182" height="86" rx="8" fill="#f8fafc" stroke="#1f2937"/>
<text x="151.0" y="588.0" text-anchor="middle" font-size="12" font-weight="700">ACCESS1</text>
<text x="151.0" y="604.0" text-anchor="middle" font-size="10">switch ProCurve</text>
<text x="151.0" y="620.0" text-anchor="middle" font-size="9">172.16.10.0</text>
<text x="151.0" y="636.0" text-anchor="middle" font-size="9"></text>
<rect class="node switch" x="290.0" y="570.0" width="182" height="86" rx="8" fill="#f8fafc" stroke="#1f2937"/>
<text x="381.0" y="588.0" text-anchor="middle" font-size="12" font-weight="700">ACCESS2</text>
<text x="381.0" y="604.0" text-anchor="middle" font-size="10">switch ProCurve</text>
<text x="381.0" y="620.0" text-anchor="middle" font-size="9">172.16.10.0</text>
<text x="381.0" y="636.0" text-anchor="middle" font-size="9"></text>
<rect class="node firewall" x="60.0" y="445.0" width="182" height="86" rx="8" fill="#fee2e2" stroke="#1f2937"/>
<text x="151.0" y="463.0" text-anchor="middle" font-size="12" font-weight="700">FW-A</text>
<text x="151.0" y="479.0" text-anchor="middle" font-size="10">firewall PA-3220</text>
<text x="151.0" y="495.0" text-anchor="middle" font-size="9"></text>
<text x="151.0" y="511.0" text-anchor="middle" font-size="9"></text>
<rect class="node firewall" x="290.0" y="445.0" width="182" height="86" rx="8" fill="#fee2e2" stroke="#1f2937"/>
<text x="381.0" y="463.0" text-anchor="middle" font-size="12" font-weight="700">FW-B</text>
<text x="381.0" y="479.0" text-anchor="middle" font-size="10">firewall PA-3220</text>
<text x="381.0" y="495.0" text-anchor="middle" font-size="9"></text>
<text x="381.0" y="511.0" text-anchor="middle" font-size="9"></text>
<rect class="node internet" x="60.0" y="195.0" width="148" height="70" rx="8" fill="#e5e7eb" stroke="#1f2937"/>
<text x="134.0" y="213.0" text-anchor="middle" font-size="12" font-weight="700">Internet</text>
<text x="134.0" y="229.0" text-anchor="middle" font-size="10">internet Cloud</text>
<text x="134.0" y="245.0" text-anchor="middle" font-size="9"></text>
<text x="134.0" y="261.0" text-anchor="middle" font-size="9"></text>
<rect class="node isp" x="256.0" y="320.0" width="148" height="70" rx="8" fill="#fef3c7" stroke="#1f2937"/>
<text x="330.0" y="338.0" text-anchor="middle" font-size="12" font-weight="700">PrimaryISP</text>
<text x="330.0" y="354.0" text-anchor="middle" font-size="10">isp PRI-100</text>
<text x="330.0" y="370.0" text-anchor="middle" font-size="9"></text>
<text x="330.0" y="386.0" text-anchor="middle" font-size="9"></text>
<rect class="node isp" x="60.0" y="320.0" width="148" height="70" rx="8" fill="#fef3c7" stroke="#1f2937"/>
<text x="134.0" y="338.0" text-anchor="middle" font-size="12" font-weight="700">BackupISP</text>
<text x="134.0" y="354.0" text-anchor="middle" font-size="10">isp BAK-010</text>
<text x="134.0" y="370.0" text-anchor="middle" font-size="9"></text>
<text x="134.0" y="386.0" text-anchor="middle" font-size="9"></text>
<rect class="node cloud" x="60.0" y="70.0" width="148" height="70" rx="8" fill="#dbeafe" stroke="#1f2937"/>
<text x="134.0" y="88.0" text-anchor="middle" font-size="12" font-weight="700">AWS-Prod</text>
<text x="134.0" y="104.0" text-anchor="middle" font-size="10">cloud AWS</text>
<text x="134.0" y="120.0" text-anchor="middle" font-size="9"></text>
<text x="134.0" y="136.0" text-anchor="middle" font-size="9"></text>
<rect class="node cloud" x="256.0" y="70.0" width="148" height="70" rx="8" fill="#dbeafe" stroke="#1f2937"/>
<text x="330.0" y="88.0" text-anchor="middle" font-size="12" font-weight="700">Azure-DR</text>
<text x="330.0" y="104.0" text-anchor="middle" font-size="10">cloud Azure</text>
<text x="330.0" y="120.0" text-anchor="middle" font-size="9"></text>
<text x="330.0" y="136.0" text-anchor="middle" font-size="9"></text>
<rect class="node cloud" x="452.0" y="70.0" width="148" height="70" rx="8" fill="#dbeafe" stroke="#1f2937"/>
<text x="526.0" y="88.0" text-anchor="middle" font-size="12" font-weight="700">Other-SaaS</text>
<text x="526.0" y="104.0" text-anchor="middle" font-size="10">cloud Other</text>
<text x="526.0" y="120.0" text-anchor="middle" font-size="9"></text>
<text x="526.0" y="136.0" text-anchor="middle" font-size="9"></text>
<rect class="node server" x="772.0" y="695.0" width="182" height="86" rx="8" fill="#dcfce7" stroke="#1f2937"/>
<text x="863.0" y="713.0" text-anchor="middle" font-size="12" font-weight="700">SERVER1</text>
<text x="863.0" y="729.0" text-anchor="middle" font-size="10">server Linux</text>
<text x="863.0" y="745.0" text-anchor="middle" font-size="9">10.10.30.11</text>
<text x="863.0" y="761.0" text-anchor="middle" font-size="9"></text>
<rect class="node server" x="1002.0" y="695.0" width="182" height="86" rx="8" fill="#dcfce7" stroke="#1f2937"/>
<text x="1093.0" y="713.0" text-anchor="middle" font-size="12" font-weight="700">SERVER2</text>
<text x="1093.0" y="729.0" text-anchor="middle" font-size="10">server Windows</text>
<text x="1093.0" y="745.0" text-anchor="middle" font-size="9">10.10.30.12</text>
<text x="1093.0" y="761.0" text-anchor="middle" font-size="9"></text>
<rect class="node ap" x="60.0" y="695.0" width="130" height="60" rx="8" fill="#ede9fe" stroke="#1f2937"/>
<text x="125.0" y="713.0" text-anchor="middle" font-size="12" font-weight="700">AP-1</text>
<text x="125.0" y="729.0" text-anchor="middle" font-size="10">ap Aruba-AP</text>
<text x="125.0" y="745.0" text-anchor="middle" font-size="9">10.10.40.21</text>
<text x="125.0" y="761.0" text-anchor="middle" font-size="9"></text>
<rect class="node ap" x="238.0" y="695.0" width="130" height="60" rx="8" fill="#ede9fe" stroke="#1f2937"/>
<text x="303.0" y="713.0" text-anchor="middle" font-size="12" font-weight="700">AP-2</text>
<text x="303.0" y="729.0" text-anchor="middle" font-size="10">ap Aruba-AP</text>
<text x="303.0" y="745.0" text-anchor="middle" font-size="9">10.10.40.22</text>
<text x="303.0" y="761.0" text-anchor="middle" font-size="9"></text>
<rect class="node ap" x="416.0" y="695.0" width="130" height="60" rx="8" fill="#ede9fe" stroke="#1f2937"/>
<text x="481.0" y="713.0" text-anchor="middle" font-size="12" font-weight="700">AP-3</text>
<text x="481.0" y="729.0" text-anchor="middle" font-size="10">ap Aruba-AP</text>
<text x="481.0" y="745.0" text-anchor="middle" font-size="9">10.10.40.23</text>
<text x="481.0" y="761.0" text-anchor="middle" font-size="9"></text>
<rect class="node ap" x="594.0" y="695.0" width="130" height="60" rx="8" fill="#ede9fe" stroke="#1f2937"/>
<text x="659.0" y="713.0" text-anchor="middle" font-size="12" font-weight="700">AP-4</text>
<text x="659.0" y="729.0" text-anchor="middle" font-size="10">ap Aruba-AP</text>
<text x="659.0" y="745.0" text-anchor="middle" font-size="9">10.10.40.24</text>
<text x="659.0" y="761.0" text-anchor="middle" font-size="9"></text>
<rect class="legend" x="24" y="638" width="560" height="126" fill="#fffbeb" stroke="#a16207"/>
<text x="34" y="658" font-size="13" font-weight="700">Legend</text>
<text x="34" y="678" font-size="11">Speed→color: 100M amber, 1G blue, 10G green, 25G teal, 40G purple, 100G red</text>
<text x="34" y="696" font-size="11">Media→style: fiber solid, copper dashed, DAC dotted, stacking sparse dots</text>
<text x="34" y="714" font-size="11">Trunk representation: double-line, label includes trunk id + member count</text>
<text x="34" y="732" font-size="11">STP blocked shown only when data exists</text>
<text x="34" y="750" font-size="11">Shading by type: switch/firewall/server/AP plus stack and HA clusters</text>
<rect class="title-block" x="2510.0" y="674" width="336" height="92" fill="#f1f5f9" stroke="#334155"/>
<text x="2520.0" y="702" font-size="14" font-weight="700">Network Diagram Generator</text>
<text x="2520.0" y="724" font-size="11">Paper: 17x11 inches</text>
<rect class="info-box" x="2350.0" y="20" width="490" height="145" fill="#f8fafc" stroke="#64748b"/>
<text x="2358.0" y="38" font-size="12" font-weight="700">Routing table</text>
<text x="2358.0" y="54" font-size="10">ACCESS1: C 172.16.10.0/24 directly connected</text>
<text x="2358.0" y="66" font-size="10">ACCESS2: C 172.16.10.0/24 directly connected</text>
<text x="2358.0" y="78" font-size="10">CORE1: C 10.0.0.0/24 is directly connected</text>
<text x="2358.0" y="90" font-size="10">CORE1: S 0.0.0.0/0 via 10.0.0.1</text>
<text x="2358.0" y="102" font-size="10">CORE2: C 10.0.0.0/24 is directly connected</text>
<text x="2358.0" y="114" font-size="10">CORE2: S 0.0.0.0/0 via 10.0.0.1</text>
<text x="2358.0" y="126" font-size="10">DIST1: C 172.16.10.0/24 directly connected</text>
<text x="2358.0" y="138" font-size="10">DIST2: O 10.10.0.0/16 via 10.0.0.2</text>
<rect class="info-box" x="2350.0" y="175" width="490" height="145" fill="#f8fafc" stroke="#64748b"/>
<text x="2358.0" y="193" font-size="12" font-weight="700">DHCP scopes</text>
<text x="2358.0" y="209" font-size="10">CORE1: Pool --</text>
<text x="2358.0" y="221" font-size="10">CORE1: Pool BRANCH_POOL</text>
<text x="2358.0" y="233" font-size="10">CORE2: Pool --</text>
<text x="2358.0" y="245" font-size="10">CORE2: Pool BRANCH_POOL</text>
<text x="2358.0" y="257" font-size="10">DIST2: WLAN_POOL</text>
<text x="2358.0" y="269" font-size="10">EDGE1: WLAN_POOL</text>
<text x="2358.0" y="281" font-size="10">EDGE2: WLAN_POOL</text>
<text x="2358.0" y="293" font-size="10">EDGE3: WLAN_POOL</text>
<rect class="info-box" x="2350.0" y="330" width="490" height="145" fill="#f8fafc" stroke="#64748b"/>
<text x="2358.0" y="348" font-size="12" font-weight="700">VLANs</text>
<text x="2358.0" y="364" font-size="10">ACCESS1: VLAN 10 Users</text>
<text x="2358.0" y="376" font-size="10">ACCESS1: VLAN 20 Voice</text>
<text x="2358.0" y="388" font-size="10">ACCESS2: VLAN 10 Users</text>
<text x="2358.0" y="400" font-size="10">ACCESS2: VLAN 20 Voice</text>
<text x="2358.0" y="412" font-size="10">CORE1: VLAN 10 Users</text>
<text x="2358.0" y="424" font-size="10">CORE1: VLAN 20 Voice</text>
<text x="2358.0" y="436" font-size="10">CORE1: VLAN 30 Servers</text>
<text x="2358.0" y="448" font-size="10">CORE2: VLAN 10 Users</text>
</svg>