<svg xmlns="http://www.w3.org/2000/svg" width="2944" height="1100" viewBox="0 0 2944 1100">
<rect x="0" y="0" width="100%" height="100%" fill="#ffffff"/>
<rect class="cluster" x="528" y="584" width="444" height="116" fill="#eef2ff" stroke="#94a3b8" stroke-dasharray="6,2"/>
<rect class="cluster" x="64" y="454" width="444" height="116" fill="#fee2e2" stroke="#94a3b8" stroke-dasharray="6,2"/>
<line class="edge" data-edge-id="e0" x1="776" y1="642.0" x2="724" y2="642.0" style="stroke:#9333ea;stroke-width:2;fill:none;stroke-dasharray:1,4"/>
<text class="edge-label" data-edge-id="e0" x="750.0" y="578.0" text-anchor="middle" font-size="11" fill="#111827">40G/stacking</text>
<line class="edge trunk" data-edge-id="e1" x1="724.0" y1="639.5" x2="1008.0" y2="639.5" style="stroke:#16a34a;stroke-width:2;fill:none"/>
<line class="edge trunk" data-edge-id="e1" x1="724.0" y1="644.5" x2="1008.0" y2="644.5" style="stroke:#16a34a;stroke-width:2;fill:none"/>
<text class="edge-label" data-edge-id="e1" x="866.0" y="578.0" text-anchor="middle" font-size="11" fill="#111827">10G/fiber po10 (2)</text>
<line class="edge trunk" data-edge-id="e2" x1="724.0" y1="639.5" x2="1240.0" y2="639.5" style="stroke:#16a34a;stroke-width:2;fill:none"/>
<line class="edge trunk" data-edge-id="e2" x1="724.0" y1="644.5" x2="1240.0" y2="644.5" style="stroke:#16a34a;stroke-width:2;fill:none"/>
<text class="edge-label" data-edge-id="e2" x="982.0" y="578.0" text-anchor="middle" font-size="11" fill="#111827">10G/fiber po20 (2)</text>
<line class="edge" data-edge-id="e3" x1="544" y1="642.0" x2="260" y2="512.0" style="stroke:#16a34a;stroke-width:2;fill:none"/>
<text class="edge-label" data-edge-id="e3" x="402.0" y="593.0" text-anchor="middle" font-size="11" fill="#111827">10G/fiber</text>
<line class="edge trunk" data-edge-id="e4" x1="956.0" y1="639.5" x2="1008.0" y2="639.5" style="stroke:#16a34a;stroke-width:2;fill:none"/>
<line class="edge trunk" data-edge-id="e4" x1="956.0" y1="644.5" x2="1008.0" y2="644.5" style="stroke:#16a34a;stroke-width:2;fill:none"/>
<text class="edge-label" data-edge-id="e4" x="982.0" y="714.0" text-anchor="middle" font-size="11" fill="#111827">10G/fiber po11 (2)</text>
<line class="edge trunk" data-edge-id="e5" x1="956.0" y1="639.5" x2="1240.0" y2="639.5" style="stroke:#16a34a;stroke-width:2;fill:none"/>
<line class="edge trunk" data-edge-id="e5" x1="956.0" y1="644.5" x2="1240.0" y2="644.5" style="stroke:#16a34a;stroke-width:2;fill:none"/>
<text class="edge-label" data-edge-id="e5" x="1098.0" y="590.0" text-anchor="middle" font-size="11" fill="#111827">10G/fiber po21 (2)</text>
<line class="edge" data-edge-id="e6" x1="776" y1="642.0" x2="492" y2="512.0" style="stroke:#16a34a;stroke-width:2;fill:none"/>
<text class="edge-label" data-edge-id="e6" x="634.0" y="569.0" text-anchor="middle" font-size="11" fill="#111827">10G/fiber</text>
<line class="edge" data-edge-id="e7" x1="1188" y1="642.0" x2="1472" y2="642.0" style="stroke:#2563eb;stroke-width:2;fill:none;stroke-dasharray:6,3"/>
<text class="edge-label" data-edge-id="e7" x="1330.0" y="590.0" text-anchor="middle" font-size="11" fill="#111827">1G/copper</text>
<line class="edge" data-edge-id="e8" x1="1188" y1="642.0" x2="1704" y2="642.0" style="stroke:#2563eb;stroke-width:2;fill:none;stroke-dasharray:6,3;stroke-dasharray:2,2;stroke-width:3"/>
<text class="edge-label" data-edge-id="e8" x="1446.0" y="590.0" text-anchor="middle" font-size="11" fill="#111827">1G/copper STP blocked</text>
<line class="edge" data-edge-id="e9" x1="1008" y1="642.0" x2="260" y2="642.0" style="stroke:#2563eb;stroke-width:2;fill:none;stroke-dasharray:6,3"/>
<text class="edge-label" data-edge-id="e9" x="634.0" y="714.0" text-anchor="middle" font-size="11" fill="#111827">1G/copper</text>
<line class="edge" data-edge-id="e10" x1="1420" y1="642.0" x2="1936" y2="642.0" style="stroke:#2563eb;stroke-width:2;fill:none;stroke-dasharray:6,3"/>
<text class="edge-label" data-edge-id="e10" x="1678.0" y="590.0" text-anchor="middle" font-size="11" fill="#111827">1G/copper</text>
<line class="edge" data-edge-id="e11" x1="1420" y1="642.0" x2="2168" y2="642.0" style="stroke:#2563eb;stroke-width:2;fill:none;stroke-dasharray:6,3"/>
<text class="edge-label" data-edge-id="e11" x="1794.0" y="590.0" text-anchor="middle" font-size="11" fill="#111827">1G/copper</text>
<line class="edge" data-edge-id="e12" x1="1240" y1="642.0" x2="492" y2="642.0" style="stroke:#2563eb;stroke-width:2;fill:none;stroke-dasharray:6,3"/>
<text class="edge-label" data-edge-id="e12" x="866.0" y="714.0" text-anchor="middle" font-size="11" fill="#111827">1G/copper</text>
<line class="edge" data-edge-id="e13" x1="1652" y1="642.0" x2="2400" y2="642.0" style="stroke:#2563eb;stroke-width:2;fill:none;stroke-dasharray:2,2"/>
<text class="edge-label" data-edge-id="e13" x="2026.0" y="590.0" text-anchor="middle" font-size="11" fill="#111827">1G/dac</text>
<line class="edge" data-edge-id="e14" x1="1472" y1="642.0" x2="220" y2="762.0" style="stroke:#2563eb;stroke-width:2;fill:none;stroke-dasharray:6,3"/>
<text class="edge-label" data-edge-id="e14" x="846.0" y="728.0" text-anchor="middle" font-size="11" fill="#111827">1G/copper</text>
<line class="edge" data-edge-id="e15" x1="1884" y1="642.0" x2="2632" y2="642.0" style="stroke:#2563eb;stroke-width:2;fill:none;stroke-dasharray:2,2"/>
<text class="edge-label" data-edge-id="e15" x="2258.0" y="590.0" text-anchor="middle" font-size="11" fill="#111827">1G/dac</text>
<line class="edge" data-edge-id="e16" x1="1704" y1="642.0" x2="412" y2="762.0" style="stroke:#2563eb;stroke-width:2;fill:none;stroke-dasharray:6,3"/>
<text class="edge-label" data-edge-id="e16" x="1058.0" y="694.0" text-anchor="middle" font-size="11" fill="#111827">1G/copper</text>
<line class="edge" data-edge-id="e17" x1="1936" y1="642.0" x2="604" y2="762.0" style="stroke:#2563eb;stroke-width:2;fill:none;stroke-dasharray:6,3"/>
<text class="edge-label" data-edge-id="e17" x="1270.0" y="694.0" text-anchor="middle" font-size="11" fill="#111827">1G/copper</text>
<line class="edge" data-edge-id="e18" x1="2168" y1="642.0" x2="796" y2="762.0" style="stroke:#2563eb;stroke-width:2;fill:none;stroke-dasharray:6,3"/>
<text class="edge-label" data-edge-id="e18" x="1482.0" y="694.0" text-anchor="middle" font-size="11" fill="#111827">1G/copper</text>
<line class="edge" data-edge-id="e19" x1="260" y1="512.0" x2="312" y2="512.0" style="stroke:#16a34a;stroke-width:2;fill:none;stroke-dasharray:1,4"/>
<text class="edge-label" data-edge-id="e19" x="286.0" y="448.0" text-anchor="middle" font-size="11" fill="#111827">10G/stacking</text>
<line class="edge" data-edge-id="e20" x1="145.0" y1="286" x2="170.0" y2="340" style="stroke:#16a34a;stroke-width:2;fill:none"/>
<text class="edge-label" data-edge-id="e20" x="157.5" y="305.0" text-anchor="middle" font-size="11" fill="#111827">10G/fiber</text>
<line class="edge" data-edge-id="e21" x1="170.0" y1="424" x2="170.0" y2="470" style="stroke:#16a34a;stroke-width:2;fill:none"/>
<text class="edge-label" data-edge-id="e21" x="170.0" y="439.0" text-anchor="middle" font-size="11" fill="#111827">10G/fiber</text>
<line class="edge" data-edge-id="e22" x1="260" y1="382.0" x2="312" y2="512.0" style="stroke:#16a34a;stroke-width:2;fill:none"/>
<text class="edge-label" data-edge-id="e22" x="358.0" y="439.0" text-anchor="middle" font-size="11" fill="#111827">10G/fiber</text>
<line class="edge" data-edge-id="e23" x1="210" y1="248.0" x2="312" y2="382.0" style="stroke:#2563eb;stroke-width:2;fill:none"/>
<text class="edge-label" data-edge-id="e23" x="261.0" y="307.0" text-anchor="middle" font-size="11" fill="#111827">1G/fiber</text>
<line class="edge" data-edge-id="e24" x1="312" y1="382.0" x2="260" y2="512.0" style="stroke:#2563eb;stroke-width:2;fill:none"/>
<text class="edge-label" data-edge-id="e24" x="286.0" y="429.0" text-anchor="middle" font-size="11" fill="#111827">1G/fiber</text>
<line class="edge" data-edge-id="e25" x1="402.0" y1="424" x2="402.0" y2="470" style="stroke:#2563eb;stroke-width:2;fill:none"/>
<text class="edge-label" data-edge-id="e25" x="420.0" y="439.0" text-anchor="middle" font-size="11" fill="#111827">1G/fiber</text>
<line class="edge" data-edge-id="e26" x1="145.0" y1="156" x2="145.0" y2="210" style="stroke:#2563eb;stroke-width:2;fill:none"/>
<text class="edge-label" data-edge-id="e26" x="145.0" y="175.0" text-anchor="middle" font-size="11" fill="#111827">1G/fiber</text>
<line class="edge" data-edge-id="e27" x1="262" y1="118.0" x2="210" y2="248.0" style="stroke:#2563eb;stroke-width:2;fill:none"/>
<text class="edge-label" data-edge-id="e27" x="236.0" y="175.0" text-anchor="middle" font-size="11" fill="#111827">1G/fiber</text>
<line class="edge" data-edge-id="e28" x1="444" y1="118.0" x2="210" y2="248.0" style="stroke:#2563eb;stroke-width:2;fill:none"/>
<text class="edge-label" data-edge-id="e28" x="327.0" y="175.0" text-anchor="middle" font-size="11" fill="#111827">1G/fiber</text>
<line class="edge" data-edge-id="e29" x1="544" y1="642.0" x2="492" y2="512.0" style="stroke:#16a34a;stroke-width:2;fill:none"/>
<text class="edge-label" data-edge-id="e29" x="544.0" y="569.0" text-anchor="middle" font-size="11" fill="#111827">10G/fiber</text>
<line class="edge" data-edge-id="e30" x1="776" y1="642.0" x2="260" y2="512.0" style="stroke:#16a34a;stroke-width:2;fill:none"/>
<text class="edge-label" data-edge-id="e30" x="492.0" y="593.0" text-anchor="middle" font-size="11" fill="#111827">10G/fiber</text>
<line class="edge" data-edge-id="e31" x1="2400" y1="642.0" x2="1028" y2="772.0" style="stroke:#2563eb;stroke-width:2;fill:none;stroke-dasharray:6,3"/>
<text class="edge-label" data-edge-id="e31" x="1714.0" y="699.0" text-anchor="middle" font-size="11" fill="#111827">1G/copper</text>
<line class="edge" data-edge-id="e32" x1="2632" y1="642.0" x2="1260" y2="772.0" style="stroke:#2563eb;stroke-width:2;fill:none;stroke-dasharray:6,3"/>
<text class="edge-label" data-edge-id="e32" x="1946.0" y="699.0" text-anchor="middle" font-size="11" fill="#111827">1G/copper</text>
<rect class="node" id="node-ACCESS1" x="80" y="600" width="180" height="84" rx="8" ry="8" fill="#f8fafc" stroke="#1f2937"/>
<text x="170.0" y="617" text-anchor="middle" font-size="12" font-weight="700">ACCESS1</text>
<text x="170.0" y="633" text-anchor="middle" font-size="10">switch 2960</text>
<text x="170.0" y="648" text-anchor="middle" font-size="10">10.0.0.254 10.0.3.1 10.10.10.0</text>
<text x="170.0" y="663" text-anchor="middle" font-size="9"></text>
<rect class="node" id="node-ACCESS2" x="312" y="600" width="180" height="84" rx="8" ry="8" fill="#f8fafc" stroke="#1f2937"/>
<text x="402.0" y="617" text-anchor="middle" font-size="12" font-weight="700">ACCESS2</text>
<text x="402.0" y="633" text-anchor="middle" font-size="10">switch 2960</text>
<text x="402.0" y="648" text-anchor="middle" font-size="10">10.0.0.254 10.0.3.2 10.10.10.0</text>
<text x="402.0" y="663" text-anchor="middle" font-size="9"></text>
<rect class="node" id="node-CORE1" x="544" y="600" width="180" height="84" rx="8" ry="8" fill="#f8fafc" stroke="#1f2937"/>
<text x="634.0" y="617" text-anchor="middle" font-size="12" font-weight="700">CORE1</text>
<text x="634.0" y="633" text-anchor="middle" font-size="10">switch C9500</text>
<text x="634.0" y="648" text-anchor="middle" font-size="10">10.0.0.1 10.0.0.254 10.10.10.0</text>
<text x="634.0" y="663" text-anchor="middle" font-size="9">Role: DHCPSTP root</text>
<rect class="node" id="node-CORE2" x="776" y="600" width="180" height="84" rx="8" ry="8" fill="#f8fafc" stroke="#1f2937"/>
<text x="866.0" y="617" text-anchor="middle" font-size="12" font-weight="700">CORE2</text>
<text x="866.0" y="633" text-anchor="middle" font-size="10">switch C9500</text>
<text x="866.0" y="648" text-anchor="middle" font-size="10">10.0.0.2 10.0.0.254 10.10.10.0</text>
<text x="866.0" y="663" text-anchor="middle" font-size="9">Role: DHCPSTP root</text>
<rect class="node" id="node-DIST1" x="1008" y="600" width="180" height="84" rx="8" ry="8" fill="#f8fafc" stroke="#1f2937"/>
<text x="1098.0" y="617" text-anchor="middle" font-size="12" font-weight="700">DIST1</text>
<text x="1098.0" y="633" text-anchor="middle" font-size="10">switch </text>
<text x="1098.0" y="648" text-anchor="middle" font-size="10">10.0.0.254 10.0.1.1 10.10.10.0</text>
<text x="1098.0" y="663" text-anchor="middle" font-size="9"></text>
<rect class="node" id="node-DIST2" x="1240" y="600" width="180" height="84" rx="8" ry="8" fill="#f8fafc" stroke="#1f2937"/>
<text x="1330.0" y="617" text-anchor="middle" font-size="12" font-weight="700">DIST2</text>
<text x="1330.0" y="633" text-anchor="middle" font-size="10">switch </text>
<text x="1330.0" y="648" text-anchor="middle" font-size="10">10.0.0.254 10.0.1.2 10.10.10.0</text>
<text x="1330.0" y="663" text-anchor="middle" font-size="9"></text>
<rect class="node" id="node-EDGE1" x="1472" y="600" width="180" height="84" rx="8" ry="8" fill="#f8fafc" stroke="#1f2937"/>
<text x="1562.0" y="617" text-anchor="middle" font-size="12" font-weight="700">EDGE1</text>
<text x="1562.0" y="633" text-anchor="middle" font-size="10">switch </text>
<text x="1562.0" y="648" text-anchor="middle" font-size="10">10.0.0.254 10.0.2.1 10.10.10.0</text>
<text x="1562.0" y="663" text-anchor="middle" font-size="9"></text>
<rect class="node" id="node-EDGE2" x="1704" y="600" width="180" height="84" rx="8" ry="8" fill="#f8fafc" stroke="#1f2937"/>
<text x="1794.0" y="617" text-anchor="middle" font-size="12" font-weight="700">EDGE2</text>
<text x="1794.0" y="633" text-anchor="middle" font-size="10">switch </text>
<text x="1794.0" y="648" text-anchor="middle" font-size="10">10.0.0.254 10.0.2.2 10.10.10.0</text>
<text x="1794.0" y="663" text-anchor="middle" font-size="9"></text>
<rect class="node" id="node-EDGE3" x="1936" y="600" width="180" height="84" rx="8" ry="8" fill="#f8fafc" stroke="#1f2937"/>
<text x="2026.0" y="617" text-anchor="middle" font-size="12" font-weight="700">EDGE3</text>
<text x="2026.0" y="633" text-anchor="middle" font-size="10">switch 9200</text>
<text x="2026.0" y="648" text-anchor="middle" font-size="10">10.0.0.254 10.0.2.3 10.10.10.0</text>
<text x="2026.0" y="663" text-anchor="middle" font-size="9"></text>
<rect class="node" id="node-EDGE4" x="2168" y="600" width="180" height="84" rx="8" ry="8" fill="#f8fafc" stroke="#1f2937"/>
<text x="2258.0" y="617" text-anchor="middle" font-size="12" font-weight="700">EDGE4</text>
<text x="2258.0" y="633" text-anchor="middle" font-size="10">switch 9200</text>
<text x="2258.0" y="648" text-anchor="middle" font-size="10">10.0.0.254 10.0.2.4 10.10.10.0</text>
<text x="2258.0" y="663" text-anchor="middle" font-size="9"></text>
<rect class="node" id="node-EDGE5" x="2400" y="600" width="180" height="84" rx="8" ry="8" fill="#f8fafc" stroke="#1f2937"/>
<text x="2490.0" y="617" text-anchor="middle" font-size="12" font-weight="700">EDGE5</text>
<text x="2490.0" y="633" text-anchor="middle" font-size="10">switch </text>
<text x="2490.0" y="648" text-anchor="middle" font-size="10">10.0.0.254 10.0.2.5 10.10.10.0</text>
<text x="2490.0" y="663" text-anchor="middle" font-size="9"></text>
<rect class="node" id="node-EDGE6" x="2632" y="600" width="180" height="84" rx="8" ry="8" fill="#f8fafc" stroke="#1f2937"/>
<text x="2722.0" y="617" text-anchor="middle" font-size="12" font-weight="700">EDGE6</text>
<text x="2722.0" y="633" text-anchor="middle" font-size="10">switch </text>
<text x="2722.0" y="648" text-anchor="middle" font-size="10">10.0.0.254 10.0.2.6 10.10.10.0</text>
<text x="2722.0" y="663" text-anchor="middle" font-size="9"></text>
<rect class="node" id="node-FW-A" x="80" y="470" width="180" height="84" rx="8" ry="8" fill="#fee2e2" stroke="#1f2937"/>
<text x="170.0" y="487" text-anchor="middle" font-size="12" font-weight="700">FW-A</text>
<text x="170.0" y="503" text-anchor="middle" font-size="10">firewall Fortigate-200F</text>
<text x="170.0" y="518" text-anchor="middle" font-size="10"></text>
<text x="170.0" y="533" text-anchor="middle" font-size="9"></text>
<rect class="node" id="node-FW-B" x="312" y="470" width="180" height="84" rx="8" ry="8" fill="#fee2e2" stroke="#1f2937"/>
<text x="402.0" y="487" text-anchor="middle" font-size="12" font-weight="700">FW-B</text>
<text x="402.0" y="503" text-anchor="middle" font-size="10">firewall Fortigate-200F</text>
<text x="402.0" y="518" text-anchor="middle" font-size="10"></text>
<text x="402.0" y="533" text-anchor="middle" font-size="9"></text>
<ellipse class="node internet" id="node-Internet" cx="145.0" cy="248.0" rx="65.0" ry="38.0" fill="#e0f2fe" stroke="#0369a1"/>
<text x="145.0" y="227" text-anchor="middle" font-size="12" font-weight="700">Internet</text>
<text x="145.0" y="243" text-anchor="middle" font-size="10">internet Cloud</text>
<text x="145.0" y="258" text-anchor="middle" font-size="10"></text>
<text x="145.0" y="273" text-anchor="middle" font-size="9"></text>
<rect class="node" id="node-ISP:ISP-A" x="80" y="340" width="180" height="84" rx="8" ry="8" fill="#fef3c7" stroke="#1f2937"/>
<text x="170.0" y="357" text-anchor="middle" font-size="12" font-weight="700">ISP-A</text>
<text x="170.0" y="373" text-anchor="middle" font-size="10">isp CIR-100</text>
<text x="170.0" y="388" text-anchor="middle" font-size="10"></text>
<text x="170.0" y="403" text-anchor="middle" font-size="9"></text>
<rect class="node" id="node-ISP:ISP-B" x="312" y="340" width="180" height="84" rx="8" ry="8" fill="#fef3c7" stroke="#1f2937"/>
<text x="402.0" y="357" text-anchor="middle" font-size="12" font-weight="700">ISP-B</text>
<text x="402.0" y="373" text-anchor="middle" font-size="10">isp CIR-200</text>
<text x="402.0" y="388" text-anchor="middle" font-size="10"></text>
<text x="402.0" y="403" text-anchor="middle" font-size="9"></text>
<polygon class="node cloud" id="node-CLOUD:AWS-Prod" points="145.0,80 210,118.0 145.0,156 80,118.0" fill="#e2e8f0" stroke="#334155"/>
<text x="145.0" y="97" text-anchor="middle" font-size="12" font-weight="700">AWS-Prod</text>
<text x="145.0" y="113" text-anchor="middle" font-size="10">cloud AWS</text>
<text x="145.0" y="128" text-anchor="middle" font-size="10"></text>
<text x="145.0" y="143" text-anchor="middle" font-size="9"></text>
<polygon class="node cloud" id="node-CLOUD:Azure-DR" points="327.0,80 392,156 262,156" fill="#e2e8f0" stroke="#334155"/>
<text x="327.0" y="97" text-anchor="middle" font-size="12" font-weight="700">Azure-DR</text>
<text x="327.0" y="113" text-anchor="middle" font-size="10">cloud Azure</text>
<text x="327.0" y="128" text-anchor="middle" font-size="10"></text>
<text x="327.0" y="143" text-anchor="middle" font-size="9"></text>
<polygon class="node cloud" id="node-CLOUD:Other-SaaS" points="470.0,80 548.0,80 574,118.0 548.0,156 470.0,156 444,118.0" fill="#e2e8f0" stroke="#334155"/>
<text x="509.0" y="97" text-anchor="middle" font-size="12" font-weight="700">Other-SaaS</text>
<text x="509.0" y="113" text-anchor="middle" font-size="10">cloud Other</text>
<text x="509.0" y="128" text-anchor="middle" font-size="10"></text>
<text x="509.0" y="143" text-anchor="middle" font-size="9"></text>
<rect class="node" id="node-SRV1" x="848" y="730" width="180" height="84" rx="8" ry="8" fill="#dcfce7" stroke="#1f2937"/>
<text x="938.0" y="747" text-anchor="middle" font-size="12" font-weight="700">SRV1</text>
<text x="938.0" y="763" text-anchor="middle" font-size="10">server Linux</text>
<text x="938.0" y="778" text-anchor="middle" font-size="10">10.0.10.11</text>
<text x="938.0" y="793" text-anchor="middle" font-size="9"></text>
<rect class="node" id="node-SRV2" x="1080" y="730" width="180" height="84" rx="8" ry="8" fill="#dcfce7" stroke="#1f2937"/>
<text x="1170.0" y="747" text-anchor="middle" font-size="12" font-weight="700">SRV2</text>
<text x="1170.0" y="763" text-anchor="middle" font-size="10">server Windows</text>
<text x="1170.0" y="778" text-anchor="middle" font-size="10">10.0.10.12</text>
<text x="1170.0" y="793" text-anchor="middle" font-size="9"></text>
<rect class="node" id="node-AP1" x="80" y="730" width="140" height="64" rx="8" ry="8" fill="#ede9fe" stroke="#1f2937"/>
<text x="150.0" y="747" text-anchor="middle" font-size="12" font-weight="700">AP1</text>
<text x="150.0" y="763" text-anchor="middle" font-size="10">ap Ubiquiti U6</text>
<text x="150.0" y="778" text-anchor="middle" font-size="10">10.0.20.11</text>
<text x="150.0" y="793" text-anchor="middle" font-size="9"></text>
<rect class="node" id="node-AP2" x="272" y="730" width="140" height="64" rx="8" ry="8" fill="#ede9fe" stroke="#1f2937"/>
<text x="342.0" y="747" text-anchor="middle" font-size="12" font-weight="700">AP2</text>
<text x="342.0" y="763" text-anchor="middle" font-size="10">ap Ubiquiti U6</text>
<text x="342.0" y="778" text-anchor="middle" font-size="10">10.0.20.12</text>
<text x="342.0" y="793" text-anchor="middle" font-size="9"></text>
<rect class="node" id="node-AP3" x="464" y="730" width="140" height="64" rx="8" ry="8" fill="#ede9fe" stroke="#1f2937"/>
<text x="534.0" y="747" text-anchor="middle" font-size="12" font-weight="700">AP3</text>
<text x="534.0" y="763" text-anchor="middle" font-size="10">ap Aruba AP</text>
<text x="534.0" y="778" text-anchor="middle" font-size="10">10.0.20.13</text>
<text x="534.0" y="793" text-anchor="middle" font-size="9"></text>
<rect class="node" id="node-AP4" x="656" y="730" width="140" height="64" rx="8" ry="8" fill="#ede9fe" stroke="#1f2937"/>
<text x="726.0" y="747" text-anchor="middle" font-size="12" font-weight="700">AP4</text>
<text x="726.0" y="763" text-anchor="middle" font-size="10">ap Aruba AP</text>
<text x="726.0" y="778" text-anchor="middle" font-size="10">10.0.20.14</text>
<text x="726.0" y="793" text-anchor="middle" font-size="9"></text>
<rect class="legend" x="24" y="638" width="530" height="126" fill="#fffbeb" stroke="#a16207"/>
<text x="34" y="658" font-size="13" font-weight="700">Legend</text>
<text x="34" y="678" font-size="11">Speed colors: 100M amber, 1G blue, 10G green, 25G teal, 40G purple, 100G red</text>
<text x="34" y="696" font-size="11">Media styles: fiber solid, copper dashed, DAC dotted, stacking sparse dots</text>
<text x="34" y="714" font-size="11">Trunk = double-line + Trk/Po id and member count</text>
<text x="34" y="732" font-size="11">STP blocked = dotted emphasized line + label</text>
<text x="34" y="750" font-size="11">Shading: firewall/server/AP/stack/HA clusters</text>
<rect x="2584" y="674" width="336" height="92" fill="#f1f5f9" stroke="#334155"/>
<text x="2594" y="700" font-size="14" font-weight="700">Network Diagram Generator</text>
<text x="2594" y="722" font-size="11">Paper: 17x11 inches</text>
<rect class="info-box" x="2424" y="20" width="490" height="140" fill="#f8fafc" stroke="#64748b"/>
<text x="2432" y="38" font-size="12" font-weight="700">Routing</text>
<text x="2432" y="54" font-size="10">ACCESS1: C 10.10.10.0/24 is directly connected</text>
<text x="2432" y="66" font-size="10">ACCESS1: S 0.0.0.0/0 via 10.0.0.254</text>
<text x="2432" y="78" font-size="10">ACCESS2: C 10.10.10.0/24 is directly connected</text>
<text x="2432" y="90" font-size="10">ACCESS2: S 0.0.0.0/0 via 10.0.0.254</text>
<text x="2432" y="102" font-size="10">CORE1: C 10.10.10.0/24 is directly connected</text>
<text x="2432" y="114" font-size="10">CORE1: S 0.0.0.0/0 via 10.0.0.254</text>
<text x="2432" y="126" font-size="10">CORE2: C 10.10.10.0/24 is directly connected</text>
<text x="2432" y="138" font-size="10">CORE2: S 0.0.0.0/0 via 10.0.0.254</text>
<rect class="info-box" x="2424" y="170" width="490" height="82" fill="#f8fafc" stroke="#64748b"/>
<text x="2432" y="188" font-size="12" font-weight="700">DHCP</text>
<text x="2432" y="204" font-size="10">CORE1: Pool --</text>
<text x="2432" y="216" font-size="10">CORE1: Pool USERS</text>
<text x="2432" y="228" font-size="10">CORE2: Pool --</text>
<text x="2432" y="240" font-size="10">CORE2: Pool USERS</text>
<rect class="info-box" x="2424" y="262" width="490" height="140" fill="#f8fafc" stroke="#64748b"/>
<text x="2432" y="280" font-size="12" font-weight="700">VLANs</text>
<text x="2432" y="296" font-size="10">ACCESS1: VLAN 10 Users</text>
<text x="2432" y="308" font-size="10">ACCESS1: VLAN 20 Voice</text>
<text x="2432" y="320" font-size="10">ACCESS1: VLAN 30 Servers</text>
<text x="2432" y="332" font-size="10">ACCESS2: VLAN 10 Users</text>
<text x="2432" y="344" font-size="10">ACCESS2: VLAN 20 Voice</text>
<text x="2432" y="356" font-size="10">ACCESS2: VLAN 30 Servers</text>
<text x="2432" y="368" font-size="10">CORE1: VLAN 10 Users</text>
<text x="2432" y="380" font-size="10">CORE1: VLAN 20 Voice</text>
</svg>